# Blender v2.71 (sub 0) OBJ File: ''
# www.blender.org
o Cube
v 1.000000 -1.154106 -1.000000
v 1.000000 -1.154106 1.000000
v -1.000000 -1.154106 1.000000
v -1.000000 -1.154106 -1.000000
v 1.000000 1.965487 -0.999999
v 0.999999 1.965487 1.000001
v -1.000000 1.965487 1.000000
v -1.000000 1.965487 -1.000000
v 1.000000 1.965487 0.341879
v -1.000000 1.965487 0.340039
v 1.000000 1.965487 -0.382128
v -1.000000 1.965487 -0.394542
v -0.445737 1.965487 -1.000000
v -0.434500 1.965487 0.340559
v -1.000000 3.872104 -1.000000
v -0.428972 1.965487 1.000000
v 0.265864 1.965487 -1.000000
v 0.284264 1.965487 1.000000
v 0.999999 3.872104 1.000001
v 0.271507 1.965487 -0.386650
v 0.999999 3.055737 1.000001
v -1.000000 3.055737 -1.000000
v 1.000000 3.055737 0.341879
v -1.000000 3.055737 0.340039
v 1.000000 3.055737 -0.382128
v -1.000000 3.055737 -0.394542
v -0.445737 3.055737 -1.000000
v -0.434500 3.055737 0.340559
v 0.999999 3.872104 1.000001
v -0.428972 3.055737 1.000000
v 0.265864 3.055737 -1.000000
v 0.284264 3.055737 1.000000
v -1.000000 3.872104 -1.000000
v 0.271507 3.055737 -0.386650
v 1.000000 3.872104 0.341879
v -1.000000 3.872104 0.340039
v 1.000000 3.872104 -0.382128
v -1.000000 3.872104 -0.394542
v -0.445737 3.872104 -1.000000
v -0.434500 3.872104 0.340559
v -1.000000 3.872104 0.340039
v -0.428972 3.872104 1.000000
v 0.265864 3.872104 -1.000000
v 0.284264 3.872104 1.000000
v 1.000000 3.872104 0.341879
v 0.271507 3.872104 -0.386650
v 1.000000 3.872104 0.341879
v -1.000000 3.872104 0.340039
v 1.000000 3.872104 -0.382128
v -1.000000 3.872104 -0.394542
v -0.445737 3.872104 -1.000000
v -0.434500 3.872104 0.340559
v -0.440633 3.872104 -0.391070
v -0.428972 3.872104 1.000000
v 0.265864 3.872104 -1.000000
v 0.284264 3.872104 1.000000
v 0.278204 3.872104 0.341215
v 0.271507 3.872104 -0.386650
v 1.000000 3.872104 -0.382128
v -1.000000 3.872104 -0.394542
v -0.445737 3.872104 -1.000000
v -0.434500 3.872104 0.340559
v -0.440633 3.872104 -0.391070
v -0.428972 3.872104 1.000000
v 0.265864 3.872104 -1.000000
v 0.284264 3.872104 1.000000
v 0.278204 3.872104 0.341215
v 0.271507 3.872104 -0.386650
v -1.000000 5.696194 0.340039
v 1.000000 5.696194 0.341879
v 1.000000 5.696194 -0.382128
v -1.000000 5.696194 -0.394542
v -0.445737 5.696194 -1.000000
v -0.434500 5.696194 0.340559
v -0.440633 5.696194 -0.391070
v -0.428972 5.696194 1.000000
v 0.265864 5.696194 -1.000000
v 0.284264 5.696194 1.000000
v 0.278204 5.696194 0.341215
v 0.271507 5.696194 -0.386650
v -1.000000 5.696194 0.340039
v -1.000000 5.696194 -0.394542
v -0.434500 5.696194 0.340559
v -0.440633 5.696194 -0.391070
v 0.278204 5.696194 0.341215
v 0.271507 5.696194 -0.386650
v -1.000000 7.132535 0.340039
v -1.000000 7.132535 -0.394542
v -0.434500 7.132535 0.340559
v -0.440633 7.132535 -0.391070
v 0.278204 7.132535 0.341215
v 0.271507 7.132535 -0.386650
v -0.004750 7.132535 -0.103065
v -0.003420 7.132535 0.055643
v -0.159352 7.132535 -0.103207
v -0.157900 7.132535 0.054684
v -0.004750 8.256891 -0.103065
v -0.003420 8.256891 0.055643
v -0.159352 8.256891 -0.103207
v -0.157900 8.256891 0.054684
v -0.765594 7.154272 0.034719
v -0.765594 7.154272 -0.087558
v -0.671462 7.154272 0.034806
v -0.672483 7.154272 -0.086980
v -0.765594 8.090891 0.034719
v -0.765594 8.090891 -0.087558
v -0.671462 8.090891 0.034806
v -0.672483 8.090891 -0.086980
vn 0.000000 -1.000000 0.000000
vn 0.000000 1.000000 0.000000
vn 1.000000 0.000000 0.000000
vn -0.000000 0.000000 1.000000
vn -1.000000 -0.000000 -0.000000
vn 0.000000 0.000000 -1.000000
vn 0.006200 0.000000 -1.000000
vn -0.000900 0.000000 1.000000
vn -1.000000 0.000000 0.008400
vn 1.000000 0.000000 -0.009200
vn 0.092300 0.995700 -0.000800
vn -1.000000 0.000000 0.009200
vn -0.006200 0.000000 1.000000
vn 0.000900 0.000000 -1.000000
vn 1.000000 0.000000 -0.008400
vn 0.000400 0.997500 -0.071000
vn -0.000100 0.997500 0.071000
vn -0.092300 0.995700 0.000000
s off
f 2//1 3//1 4//1
f 10//2 7//2 16//2
f 6//3 2//3 9//3
f 16//4 7//4 3//4
f 12//5 8//5 4//5
f 4//6 8//6 13//6
f 20//7 34//7 25//7
f 14//8 28//8 24//8
f 6//4 21//4 32//4
f 16//9 30//9 28//9
f 13//6 27//6 31//6
f 18//4 32//4 30//4
f 17//10 31//10 34//10
f 17//2 20//2 11//2
f 34//7 46//7 37//7
f 28//8 40//8 36//8
f 21//4 19//4 44//4
f 30//9 42//9 40//9
f 27//6 39//6 43//6
f 32//4 44//4 42//4
f 31//10 43//10 46//10
f 10//5 24//5 26//5
f 11//3 25//3 23//3
f 12//5 26//5 22//5
f 8//6 22//6 27//6
f 9//3 23//3 21//3
f 46//4 58//4 49//4
f 40//4 52//4 48//4
f 19//4 29//4 56//4
f 42//4 54//4 52//4
f 39//4 51//4 55//4
f 44//4 56//4 54//4
f 43//4 55//4 58//4
f 24//5 36//5 38//5
f 25//3 37//3 35//3
f 26//5 38//5 15//5
f 22//6 15//6 39//6
f 23//3 35//3 19//3
f 53//4 63//4 61//4
f 33//2 50//2 53//2
f 51//4 61//4 65//4
f 56//4 66//4 64//4
f 57//4 67//4 66//4
f 57//2 56//2 29//2
f 55//4 65//4 68//4
f 36//4 48//4 50//4
f 37//4 49//4 47//4
f 38//4 50//4 33//4
f 15//4 33//4 51//4
f 35//4 47//4 29//4
f 63//9 75//9 73//9
f 61//6 73//6 77//6
f 66//4 78//4 76//4
f 66//10 67//10 79//10
f 65//10 77//10 80//10
f 54//4 64//4 62//4
f 50//4 60//4 63//4
f 52//4 62//4 41//4
f 58//4 68//4 59//4
f 48//4 41//4 60//4
f 49//4 59//4 45//4
f 47//4 45//4 67//4
f 75//4 84//4 86//4
f 74//2 76//2 78//2
f 80//4 86//4 85//4
f 73//2 75//2 80//2
f 80//2 79//2 70//2
f 64//9 76//9 74//9
f 63//7 60//7 72//7
f 62//8 74//8 69//8
f 68//7 80//7 71//7
f 41//5 69//5 72//5
f 59//3 71//3 70//3
f 45//8 70//8 79//8
f 84//7 90//7 92//7
f 86//10 92//10 91//10
f 79//4 85//4 83//4
f 72//4 82//4 84//4
f 74//4 83//4 81//4
f 69//4 81//4 82//4
f 89//11 90//11 104//11
f 92//1 96//1 95//1
f 85//8 91//8 89//8
f 82//7 88//7 90//7
f 83//8 89//8 87//8
f 81//5 87//5 88//5
f 95//12 96//12 100//12
f 90//1 94//1 96//1
f 91//1 95//1 93//1
f 89//1 93//1 94//1
f 98//2 97//2 99//2
f 94//13 98//13 100//13
f 95//14 99//14 97//14
f 93//15 97//15 98//15
f 104//15 108//15 107//15
f 88//16 102//16 104//16
f 89//17 103//17 101//17
f 88//18 87//18 101//18
f 106//2 105//2 107//2
f 102//7 106//7 108//7
f 103//8 107//8 105//8
f 101//5 105//5 106//5
f 1//1 2//1 4//1
f 14//2 10//2 16//2
f 5//3 11//3 1//3
f 6//4 18//4 2//4
f 1//3 11//3 9//3
f 16//4 3//4 18//4
f 2//3 1//3 9//3
f 7//5 10//5 3//5
f 18//4 3//4 2//4
f 17//6 5//6 1//6
f 10//8 14//8 24//8
f 10//5 12//5 4//5
f 10//5 4//5 3//5
f 17//6 4//6 13//6
f 11//7 20//7 25//7
f 17//6 1//6 4//6
f 18//4 6//4 32//4
f 14//9 16//9 28//9
f 17//6 13//6 31//6
f 16//4 18//4 30//4
f 20//10 17//10 34//10
f 5//2 17//2 11//2
f 25//7 34//7 37//7
f 24//8 28//8 36//8
f 32//4 21//4 44//4
f 28//9 30//9 40//9
f 31//6 27//6 43//6
f 30//4 32//4 42//4
f 34//10 31//10 46//10
f 12//5 10//5 26//5
f 9//3 11//3 23//3
f 8//5 12//5 22//5
f 13//6 8//6 27//6
f 6//3 9//3 21//3
f 37//4 46//4 49//4
f 36//4 40//4 48//4
f 44//4 19//4 56//4
f 40//4 42//4 52//4
f 43//4 39//4 55//4
f 42//4 44//4 54//4
f 46//4 43//4 58//4
f 26//5 24//5 38//5
f 23//3 25//3 35//3
f 22//5 26//5 15//5
f 27//6 22//6 39//6
f 21//3 23//3 19//3
f 51//4 53//4 61//4
f 51//2 33//2 53//2
f 55//4 51//4 65//4
f 54//4 56//4 64//4
f 56//4 57//4 66//4
f 47//2 57//2 29//2
f 58//4 55//4 68//4
f 38//4 36//4 50//4
f 35//4 37//4 47//4
f 15//4 38//4 33//4
f 39//4 15//4 51//4
f 19//4 35//4 29//4
f 61//9 63//9 73//9
f 65//6 61//6 77//6
f 64//4 66//4 76//4
f 78//10 66//10 79//10
f 68//10 65//10 80//10
f 52//4 54//4 62//4
f 53//4 50//4 63//4
f 48//4 52//4 41//4
f 49//4 58//4 59//4
f 50//4 48//4 60//4
f 47//4 49//4 45//4
f 57//4 47//4 67//4
f 80//4 75//4 86//4
f 79//2 74//2 78//2
f 79//4 80//4 85//4
f 77//2 73//2 80//2
f 71//2 80//2 70//2
f 62//9 64//9 74//9
f 75//7 63//7 72//7
f 41//8 62//8 69//8
f 59//7 68//7 71//7
f 60//5 41//5 72//5
f 45//3 59//3 70//3
f 67//8 45//8 79//8
f 86//7 84//7 92//7
f 85//10 86//10 91//10
f 74//4 79//4 83//4
f 75//4 72//4 84//4
f 69//4 74//4 81//4
f 72//4 69//4 82//4
f 103//11 89//11 104//11
f 91//2 92//2 95//2
f 83//8 85//8 89//8
f 84//7 82//7 90//7
f 81//8 83//8 87//8
f 82//5 81//5 88//5
f 99//12 95//12 100//12
f 92//2 90//2 96//2
f 89//2 91//2 93//2
f 90//2 89//2 94//2
f 100//2 98//2 99//2
f 96//13 94//13 100//13
f 93//14 95//14 97//14
f 94//15 93//15 98//15
f 103//15 104//15 107//15
f 90//16 88//16 104//16
f 87//17 89//17 101//17
f 102//18 88//18 101//18
f 108//2 106//2 107//2
f 104//7 102//7 108//7
f 101//8 103//8 105//8
f 102//5 101//5 106//5
